<svg id="visual" viewBox="0 0 900 675" width="900" height="675" xmlns="http://www.w3.org/2000/svg" xmlns:xlink="http://www.w3.org/1999/xlink" version="1.1"><rect x="0" y="0" width="900" height="675" fill="#00bb92"></rect><path d="M0 503L21.5 500.8C43 498.7 86 494.3 128.8 500C171.7 505.7 214.3 521.3 257.2 530.5C300 539.7 343 542.3 385.8 544.8C428.7 547.3 471.3 549.7 514.2 536C557 522.3 600 492.7 642.8 489.3C685.7 486 728.3 509 771.2 523.8C814 538.7 857 545.3 878.5 548.7L900 552L900 676L878.5 676C857 676 814 676 771.2 676C728.3 676 685.7 676 642.8 676C600 676 557 676 514.2 676C471.3 676 428.7 676 385.8 676C343 676 300 676 257.2 676C214.3 676 171.7 676 128.8 676C86 676 43 676 21.5 676L0 676Z" fill="#004e3d"></path><path d="M0 556L21.5 562.3C43 568.7 86 581.3 128.8 581.3C171.7 581.3 214.3 568.7 257.2 560C300 551.3 343 546.7 385.8 549.7C428.7 552.7 471.3 563.3 514.2 561.2C557 559 600 544 642.8 540.8C685.7 537.7 728.3 546.3 771.2 557.5C814 568.7 857 582.3 878.5 589.2L900 596L900 676L878.5 676C857 676 814 676 771.2 676C728.3 676 685.7 676 642.8 676C600 676 557 676 514.2 676C471.3 676 428.7 676 385.8 676C343 676 300 676 257.2 676C214.3 676 171.7 676 128.8 676C86 676 43 676 21.5 676L0 676Z" fill="#007058"></path><path d="M0 602L21.5 607.5C43 613 86 624 128.8 627.3C171.7 630.7 214.3 626.3 257.2 619.7C300 613 343 604 385.8 606.7C428.7 609.3 471.3 623.7 514.2 622C557 620.3 600 602.7 642.8 601.5C685.7 600.3 728.3 615.7 771.2 614.2C814 612.7 857 594.3 878.5 585.2L900 576L900 676L878.5 676C857 676 814 676 771.2 676C728.3 676 685.7 676 642.8 676C600 676 557 676 514.2 676C471.3 676 428.7 676 385.8 676C343 676 300 676 257.2 676C214.3 676 171.7 676 128.8 676C86 676 43 676 21.5 676L0 676Z" fill="#009473"></path></svg>